<svg width="165" height="40" viewBox="0 0 165 40" fill="none" xmlns="http://www.w3.org/2000/svg">
<path d="M51.4005 26.0588H50.964C50.3461 26.0628 49.7294 26.0034 49.1235 25.8818C48.6385 25.7869 48.168 25.6291 47.7238 25.4124C47.358 25.2269 47.0199 24.9913 46.7191 24.7125C46.4519 24.4709 46.2192 24.1939 46.0274 23.889C45.8591 23.6022 45.721 23.2986 45.6156 22.9832C45.5171 22.6951 45.444 22.3988 45.3974 22.098C45.3601 21.8251 45.3422 21.5499 45.3438 21.2745V16.9019H48.1807V21.1098C48.1792 21.415 48.2221 21.7187 48.3083 22.0115C48.3985 22.3071 48.5377 22.5855 48.7201 22.8349C48.9632 23.1311 49.2839 23.3535 49.6464 23.4773C50.1279 23.6446 50.6356 23.7241 51.1452 23.7119C51.6467 23.7235 52.1462 23.644 52.6193 23.4773C52.9782 23.3508 53.2956 23.1287 53.5374 22.8349C53.7313 22.589 53.8791 22.31 53.9738 22.0115C54.0619 21.7192 54.105 21.4151 54.1014 21.1098V16.9019H56.9301V21.2786C56.9285 21.6677 56.8857 22.0555 56.8024 22.4356C56.6946 22.8685 56.527 23.2842 56.3042 23.6708C56.0565 24.1181 55.7319 24.5182 55.345 24.8525C54.867 25.237 54.3187 25.525 53.7309 25.7006C52.9782 25.9436 52.1915 26.0646 51.4005 26.0588Z" fill="white"/>
<path d="M57.9597 16.9019H68.0224V18.5488L61.8464 23.7861H68.1171V25.9188H57.8691V24.2719L63.8968 18.9976H57.9679L57.9597 16.9019Z" fill="white"/>
<path d="M69.1387 25.923V16.9019H76.8629C78.0624 16.9019 78.9119 17.094 79.4115 17.4783C79.6474 17.6469 79.8388 17.8702 79.9693 18.1291C80.0998 18.388 80.1655 18.6747 80.1608 18.9646V19.1335C80.164 19.3903 80.1106 19.6448 80.0044 19.8787C79.9071 20.0846 79.7667 20.2672 79.5926 20.4139C79.4515 20.5326 79.2984 20.6361 79.1356 20.7227C79.0033 20.7904 78.8656 20.8468 78.7239 20.8916C78.9221 20.9418 79.1151 21.0107 79.3003 21.0974C79.5187 21.2053 79.7256 21.335 79.9179 21.4845C80.1509 21.6664 80.336 21.9025 80.4573 22.1721C80.5994 22.4818 80.6698 22.8195 80.6632 23.1602V23.329C80.6632 25.0583 79.4183 25.923 76.9287 25.923H69.1387ZM76.377 18.8041H71.9632V20.274H76.377C77.0317 20.274 77.3611 20.031 77.3611 19.5452V19.5205C77.3611 19.0429 77.044 18.8041 76.377 18.8041ZM76.6199 22.1885H71.9632V23.959H76.6323C77.3775 23.959 77.7481 23.6625 77.7481 23.0738V23.0244C77.7357 22.4685 77.3652 22.1885 76.6323 22.1885H76.6199Z" fill="white"/>
<path d="M81.4941 16.9019H91.0011V18.9605H84.2857V20.2946H90.8446V22.3532H84.2857V23.8355H91.1246V25.9312H81.4941V16.9019Z" fill="white"/>
<path d="M95.053 25.923H92.2285V16.9019H95.053V20.661L99.6727 16.9019H103.263L98.071 21.0192L103.506 25.9188H99.8003L95.0365 21.6615L95.053 25.923Z" fill="white"/>
<path d="M106.717 16.9019V25.923H103.893V16.9019H106.717Z" fill="white"/>
<path d="M112.84 26.0793C112.05 26.0916 111.261 26.0142 110.489 25.8488C109.946 25.7439 109.423 25.5565 108.937 25.2929C108.592 25.095 108.296 24.8237 108.068 24.4983C107.883 24.2501 107.744 23.9713 107.656 23.6748C107.593 23.4132 107.563 23.145 107.566 22.876V22.7443H110.514C110.577 23.694 111.47 24.1702 113.194 24.173H113.363C113.832 24.1793 114.301 24.1532 114.767 24.0948C115.052 24.069 115.331 23.9937 115.59 23.8724C115.727 23.8031 115.843 23.6996 115.928 23.5719C115.988 23.4623 116.018 23.3386 116.014 23.2137C116.024 23.0481 115.971 22.8851 115.866 22.7566C115.674 22.595 115.44 22.4909 115.191 22.4561C114.683 22.3584 114.168 22.3088 113.651 22.3078L112.099 22.2708C109.164 22.1884 107.696 21.3073 107.693 19.6274V19.5163C107.689 19.171 107.758 18.8287 107.895 18.5116C108.059 18.1712 108.3 17.8738 108.599 17.6429C109.05 17.3124 109.571 17.0911 110.122 16.9965C110.935 16.8287 111.763 16.7513 112.593 16.7659H113.416C114.149 16.7571 114.88 16.8136 115.603 16.9347C116.122 17.0143 116.628 17.161 117.11 17.3711C117.457 17.5263 117.771 17.7488 118.032 18.0258C118.247 18.2456 118.414 18.5078 118.522 18.7957C118.614 19.0603 118.66 19.3389 118.658 19.6192V19.7386H115.747C115.648 19.0222 114.779 18.6599 113.14 18.6599H112.947C112.422 18.6452 111.898 18.688 111.382 18.7875C111.141 18.8179 110.913 18.9117 110.719 19.0593C110.64 19.1692 110.599 19.3025 110.604 19.438C110.6 19.571 110.644 19.7011 110.728 19.8045C110.899 19.9531 111.109 20.0489 111.333 20.0803C111.78 20.1719 112.235 20.2161 112.692 20.2121L114.207 20.2368C115.895 20.2697 117.114 20.4962 117.855 20.9203C118.211 21.1132 118.505 21.4033 118.702 21.7569C118.9 22.1104 118.993 22.5128 118.971 22.9172V23.086C118.976 23.3873 118.94 23.688 118.864 23.9795C118.774 24.2826 118.621 24.5633 118.415 24.8029C118.167 25.0953 117.86 25.3312 117.513 25.4947C117.022 25.7145 116.504 25.8682 115.973 25.9517C115.217 26.075 114.451 26.1329 113.684 26.1246L112.84 26.0793Z" fill="white"/>
<path d="M123.113 25.923V19.0346H119.23V16.9019H129.853V19.0346H125.962V25.923H123.113Z" fill="white"/>
<path d="M138.194 25.923L137.346 24.276H131.878L131.055 25.923H128.173L132.731 16.9019H136.391L141.221 25.923H138.194ZM136.305 22.2379L134.559 18.8535L132.883 22.2379H136.305Z" fill="white"/>
<path d="M141.686 16.9019H144.836L150.6 22.5756V16.9019H153.392V25.923H150.6L144.453 19.9569V25.9353H141.686V16.9019Z" fill="white"/>
<path d="M51.3387 31.3701V37.7849H50.5153V32.7741L48.4196 36.2656H48.3084L46.2085 32.7824V37.7849H45.3398V31.3701H46.3032L48.3619 34.7628L50.3959 31.3701H51.3387Z" fill="white"/>
<path d="M56.4985 37.2083C56.0384 37.6499 55.4254 37.8965 54.7877 37.8965C54.15 37.8965 53.5371 37.6499 53.077 37.2083C52.633 36.7478 52.3848 36.1331 52.3848 35.4934C52.3848 34.8537 52.633 34.239 53.077 33.7785C53.5371 33.3369 54.15 33.0903 54.7877 33.0903C55.4254 33.0903 56.0384 33.3369 56.4985 33.7785C56.9523 34.2339 57.2072 34.8505 57.2072 35.4934C57.2072 36.1363 56.9523 36.753 56.4985 37.2083ZM54.7857 37.126C55.0017 37.1294 55.2163 37.089 55.4163 37.0071C55.6163 36.9252 55.7976 36.8036 55.9493 36.6497C56.101 36.4957 56.2198 36.3126 56.2986 36.1114C56.3774 35.9101 56.4146 35.695 56.4079 35.479C56.4133 35.2634 56.3748 35.049 56.2948 34.8487C56.2148 34.6484 56.095 34.4664 55.9427 34.3138C55.7917 34.1615 55.6112 34.0416 55.4123 33.9616C55.2133 33.8816 55 33.8431 54.7857 33.8485C54.5732 33.8433 54.3619 33.882 54.1649 33.962C53.968 34.0421 53.7897 34.1618 53.6411 34.3138C53.4874 34.4656 53.3664 34.6474 53.2857 34.8478C53.205 35.0482 53.1662 35.263 53.1717 35.479C53.1656 35.6942 53.2029 35.9083 53.2815 36.1087C53.36 36.3091 53.4781 36.4917 53.6288 36.6454C53.7794 36.7991 53.9595 36.9209 54.1583 37.0035C54.3571 37.086 54.5704 37.1277 54.7857 37.126Z" fill="white"/>
<path d="M60.6774 33.0829C60.986 33.0781 61.2921 33.1383 61.5758 33.2597C61.8596 33.381 62.1146 33.5606 62.3244 33.787C62.7648 34.2468 63.0106 34.859 63.0106 35.4957C63.0106 36.1324 62.7648 36.7446 62.3244 37.2044C62.1138 37.4294 61.8585 37.6079 61.5749 37.7284C61.2913 37.849 60.9856 37.9089 60.6774 37.9043C60.3348 37.9202 59.9941 37.8446 59.6902 37.6855C59.3863 37.5263 59.1303 37.2892 58.9482 36.9985V37.7849H58.1494V31.3701H58.9482V33.9929C59.1301 33.7017 59.386 33.464 59.6898 33.3042C59.9936 33.1443 60.3344 33.068 60.6774 33.0829ZM60.5786 37.1344C60.7927 37.1395 61.0055 37.1004 61.2039 37.0196C61.4022 36.9389 61.5818 36.8182 61.7315 36.665C62.0325 36.3501 62.2005 35.9313 62.2005 35.4957C62.2005 35.0601 62.0325 34.6413 61.7315 34.3264C61.5822 34.1725 61.4027 34.051 61.2044 33.9695C61.006 33.8881 60.793 33.8484 60.5786 33.8529C60.3624 33.8481 60.1474 33.8877 59.947 33.9691C59.7466 34.0505 59.5651 34.1721 59.4134 34.3264C59.1143 34.6422 58.9476 35.0607 58.9476 35.4957C58.9476 35.9307 59.1143 36.3492 59.4134 36.665C59.5648 36.8182 59.7458 36.9389 59.9455 37.0196C60.1451 37.1003 60.3592 37.1394 60.5745 37.1344H60.5786Z" fill="white"/>
<path d="M64.354 32.3706C64.2829 32.372 64.2122 32.3588 64.1464 32.3319C64.0805 32.305 64.0209 32.2649 63.971 32.2142C63.9203 32.1661 63.8802 32.1079 63.8533 32.0434C63.8263 31.9788 63.8131 31.9094 63.8146 31.8395C63.813 31.7684 63.8261 31.6977 63.853 31.6318C63.8799 31.5659 63.9201 31.5063 63.971 31.4566C64.0201 31.4045 64.0795 31.3633 64.1454 31.3356C64.2114 31.308 64.2825 31.2945 64.354 31.296C64.4242 31.2949 64.4939 31.3086 64.5585 31.3362C64.6231 31.3639 64.681 31.4049 64.7286 31.4566C64.7796 31.5063 64.8198 31.5659 64.8467 31.6318C64.8736 31.6977 64.8867 31.7684 64.8851 31.8395C64.8865 31.9094 64.8734 31.9788 64.8464 32.0434C64.8195 32.1079 64.7793 32.1661 64.7286 32.2142C64.6802 32.2645 64.622 32.3043 64.5575 32.3313C64.4931 32.3582 64.4238 32.3716 64.354 32.3706ZM63.9422 37.7849V33.2024H64.741V37.7849H63.9422Z" fill="white"/>
<path d="M65.9678 37.7849V31.0942H66.7501V37.7849H65.9678Z" fill="white"/>
<path d="M68.5421 35.8618C68.6044 36.2383 68.8057 36.5777 69.1062 36.8129C69.4226 37.0464 69.8083 37.1668 70.2014 37.1547C70.4618 37.173 70.7224 37.1203 70.9552 37.0021C71.1879 36.8839 71.3842 36.7047 71.523 36.4836L72.1983 36.8706C71.985 37.2064 71.686 37.4792 71.3321 37.6609C70.9781 37.8426 70.5821 37.9265 70.1849 37.904C69.8581 37.9172 69.5321 37.8634 69.2269 37.7459C68.9218 37.6283 68.6439 37.4495 68.4104 37.2206C68.1842 36.9953 68.0067 36.7259 67.8892 36.4291C67.7716 36.1323 67.7163 35.8145 67.7269 35.4954C67.7171 35.1775 67.7715 34.8609 67.8868 34.5645C68.0022 34.2681 68.176 33.998 68.398 33.7702C68.6226 33.5417 68.8925 33.3626 69.1902 33.2442C69.4879 33.1258 69.8071 33.0708 70.1273 33.0826C70.4373 33.0729 70.7457 33.1317 71.0303 33.2548C71.315 33.3779 71.569 33.5623 71.7742 33.7949C72.1971 34.2622 72.4254 34.8735 72.4124 35.5036C72.4107 35.6235 72.4011 35.7432 72.3836 35.8618H68.5421ZM70.1273 33.8361C69.7441 33.8175 69.3681 33.9441 69.0743 34.1906C68.7804 34.4372 68.5904 34.7855 68.5421 35.166H71.6054C71.5646 34.7823 71.3809 34.4281 71.0908 34.1737C70.8203 33.9497 70.4784 33.8299 70.1273 33.8361Z" fill="white"/>
<path d="M79.6876 31.3701H80.5398V37.7849H79.8522L76.5583 32.9924V37.7849H75.7061V31.3701H76.3937L79.6876 36.1545V31.3701Z" fill="white"/>
<path d="M84.9942 33.2021H85.7929V37.7847H84.9942V37.126C84.8389 37.377 84.6189 37.5816 84.3575 37.7185C84.096 37.8554 83.8025 37.9195 83.5078 37.9041C83.2688 37.9147 83.0304 37.875 82.8077 37.7878C82.5851 37.7006 82.3832 37.5677 82.2149 37.3977C81.8795 37.019 81.7065 36.5236 81.7332 36.0184V33.2021H82.5278V35.969C82.5181 36.1268 82.5401 36.285 82.5925 36.4342C82.6448 36.5833 82.7264 36.7206 82.8326 36.8378C82.9418 36.942 83.0712 37.0228 83.2128 37.0752C83.3544 37.1276 83.5052 37.1505 83.656 37.1424C83.8335 37.1504 84.0107 37.1216 84.1765 37.0578C84.3423 36.9941 84.4931 36.8967 84.6195 36.7719C84.8877 36.4552 85.0194 36.0451 84.9859 35.6314L84.9942 33.2021Z" fill="white"/>
<path d="M91.948 33.0828C92.1776 33.0757 92.406 33.1168 92.6188 33.2033C92.8315 33.2898 93.0237 33.4199 93.1832 33.5851C93.5147 33.9544 93.6864 34.44 93.6609 34.9356V37.7848H92.8621V34.9644C92.8796 34.6653 92.7824 34.3708 92.5904 34.1409C92.495 34.0431 92.38 33.9665 92.253 33.9162C92.126 33.8658 91.9898 33.8428 91.8533 33.8486C91.699 33.8416 91.5451 33.869 91.4026 33.9288C91.2602 33.9886 91.1329 34.0793 91.0299 34.1944C90.8025 34.4934 90.694 34.866 90.7252 35.2402V37.7889H89.9264V34.9685C89.9418 34.6717 89.8498 34.3794 89.667 34.145C89.5767 34.0474 89.4662 33.9707 89.3432 33.9202C89.2201 33.8697 89.0876 33.8467 88.9548 33.8527C88.8007 33.8506 88.6479 33.8806 88.5061 33.9408C88.3643 34.0011 88.2367 34.0903 88.1313 34.2027C87.8887 34.4932 87.769 34.867 87.7978 35.2444V37.793H86.999V33.2022H87.7978V33.8156C87.9394 33.5826 88.1409 33.3917 88.3813 33.2628C88.6217 33.1339 88.8922 33.0718 89.1647 33.0828C89.441 33.0674 89.7158 33.1333 89.955 33.2723C90.1943 33.4113 90.3876 33.6174 90.5111 33.8651C90.6554 33.6151 90.866 33.4098 91.1195 33.2717C91.3731 33.1337 91.6597 33.0683 91.948 33.0828Z" fill="white"/>
<path d="M97.3135 33.0829C97.6222 33.0776 97.9284 33.1376 98.2122 33.2589C98.4961 33.3803 98.751 33.5602 98.9605 33.787C99.4009 34.2468 99.6467 34.859 99.6467 35.4957C99.6467 36.1324 99.4009 36.7446 98.9605 37.2044C98.7502 37.4298 98.495 37.6086 98.2113 37.7291C97.9276 37.8497 97.6217 37.9094 97.3135 37.9043C96.9703 37.9201 96.6291 37.8445 96.3246 37.6854C96.0201 37.5263 95.7632 37.2893 95.5801 36.9985V37.7849H94.7812V31.3701H95.5719V33.9929C95.7555 33.7004 96.0135 33.462 96.3195 33.3021C96.6256 33.1422 96.9686 33.0666 97.3135 33.0829ZM97.2106 37.1344C97.4253 37.1395 97.6388 37.1005 97.8378 37.0198C98.0368 36.939 98.2171 36.8183 98.3676 36.665C98.6667 36.3492 98.8334 35.9307 98.8334 35.4957C98.8334 35.0607 98.6667 34.6422 98.3676 34.3264C98.0592 34.0209 97.6426 33.8495 97.2085 33.8495C96.7744 33.8495 96.3579 34.0209 96.0495 34.3264C95.7485 34.6413 95.5805 35.0601 95.5805 35.4957C95.5805 35.9313 95.7485 36.3501 96.0495 36.665C96.2012 36.82 96.3835 36.9418 96.5848 37.0226C96.7861 37.1034 97.002 37.1415 97.2188 37.1344H97.2106Z" fill="white"/>
<path d="M101.143 35.8618C101.203 36.2389 101.405 36.5788 101.707 36.8129C102.023 37.0464 102.409 37.1668 102.802 37.1547C103.062 37.173 103.323 37.1203 103.556 37.0021C103.788 36.8839 103.985 36.7047 104.124 36.4836L104.799 36.8706C104.586 37.2064 104.286 37.4792 103.933 37.6609C103.579 37.8426 103.183 37.9265 102.785 37.904C102.459 37.9177 102.132 37.8641 101.827 37.7466C101.522 37.629 101.244 37.4499 101.011 37.2206C100.785 36.9953 100.607 36.7259 100.49 36.4291C100.372 36.1323 100.317 35.8145 100.327 35.4954C100.318 35.1775 100.372 34.8609 100.487 34.5645C100.603 34.2681 100.777 33.998 100.999 33.7702C101.223 33.5417 101.493 33.3626 101.791 33.2442C102.088 33.1258 102.408 33.0708 102.728 33.0826C103.038 33.0735 103.346 33.1325 103.631 33.2556C103.915 33.3787 104.169 33.5628 104.375 33.7949C104.798 34.2622 105.026 34.8735 105.013 35.5036C105.011 35.6235 105.002 35.7432 104.984 35.8618H101.143ZM102.728 33.8361C102.345 33.8175 101.969 33.9441 101.675 34.1906C101.381 34.4372 101.191 34.7855 101.143 35.166H104.218C104.177 34.7823 103.994 34.4281 103.704 34.1737C103.43 33.9469 103.083 33.8269 102.728 33.8361Z" fill="white"/>
<path d="M106.726 33.9559C106.846 33.6833 107.048 33.4547 107.304 33.302C107.56 33.1493 107.857 33.08 108.154 33.1037V33.9271C107.791 33.8997 107.431 34.0099 107.146 34.2359C106.998 34.3744 106.885 34.5447 106.813 34.7338C106.742 34.9229 106.715 35.1258 106.734 35.327V37.7563H105.935V33.2025H106.734L106.726 33.9559Z" fill="white"/>
<path d="M113.635 31.3701C114.181 31.3701 114.704 31.587 115.09 31.9731C115.476 32.3592 115.693 32.8828 115.693 33.4288C115.693 33.9748 115.476 34.4984 115.09 34.8845C114.704 35.2706 114.181 35.4875 113.635 35.4875H112.161V37.7767H111.308V31.3701H113.635ZM113.635 34.6969C113.799 34.7018 113.962 34.672 114.114 34.6096C114.266 34.5471 114.403 34.4535 114.516 34.3346C114.738 34.0862 114.861 33.7644 114.861 33.4308C114.861 33.0973 114.738 32.7755 114.516 32.5271C114.402 32.4096 114.265 32.3171 114.113 32.2554C113.961 32.1938 113.798 32.1643 113.635 32.1689H112.161V34.6969H113.635Z" fill="white"/>
<path d="M120.152 37.2087C119.755 37.6112 119.23 37.8633 118.667 37.9218C118.105 37.9804 117.539 37.8417 117.068 37.5296C116.596 37.2175 116.247 36.7513 116.081 36.2106C115.915 35.6699 115.941 35.0883 116.156 34.5651C116.372 34.0419 116.762 33.6096 117.26 33.3421C117.758 33.0746 118.334 32.9884 118.889 33.0983C119.444 33.2082 119.943 33.5073 120.302 33.9446C120.661 34.3819 120.857 34.9302 120.856 35.4959C120.862 35.8142 120.802 36.1303 120.681 36.4248C120.56 36.7193 120.38 36.986 120.152 37.2087ZM118.439 37.1263C118.712 37.1315 118.983 37.0687 119.225 36.9436C119.468 36.8184 119.676 36.6349 119.83 36.4095C119.984 36.1841 120.08 35.9239 120.108 35.6523C120.137 35.3808 120.098 35.1063 119.994 34.8537C119.89 34.6012 119.725 34.3783 119.514 34.2053C119.303 34.0324 119.052 33.9146 118.783 33.8627C118.515 33.8109 118.239 33.8265 117.978 33.9081C117.717 33.9898 117.481 34.135 117.291 34.3307C117.138 34.4833 117.019 34.6653 116.939 34.8655C116.859 35.0658 116.82 35.2803 116.825 35.4959C116.819 35.7112 116.856 35.9256 116.934 36.1263C117.012 36.3269 117.13 36.5097 117.281 36.6635C117.432 36.8174 117.612 36.9391 117.811 37.0215C118.01 37.1039 118.224 37.1451 118.439 37.1428V37.1263Z" fill="white"/>
<path d="M122.598 33.9557C122.719 33.6834 122.921 33.4552 123.177 33.3026C123.433 33.15 123.73 33.0804 124.027 33.1034V33.9269C123.665 33.8997 123.306 34.01 123.022 34.2357C122.874 34.3736 122.76 34.5438 122.688 34.7331C122.617 34.9223 122.59 35.1255 122.61 35.3268V37.7561H121.812V33.2023H122.61L122.598 33.9557Z" fill="white"/>
<path d="M127.411 33.9556H126.176V36.426C126.158 36.5974 126.205 36.7693 126.308 36.9077C126.363 36.9592 126.428 36.9989 126.498 37.0244C126.569 37.0499 126.644 37.0606 126.72 37.0559C126.905 37.0559 127.131 37.0559 127.399 37.0559V37.7682C126.884 37.8866 126.344 37.8271 125.867 37.5994C125.692 37.4649 125.555 37.287 125.47 37.0834C125.385 36.8798 125.354 36.6574 125.381 36.4383V33.9679H124.476V33.198H125.381V32.1522L126.18 31.9175V33.198H127.415L127.411 33.9556Z" fill="white"/>
<path d="M131.92 33.2022H132.718V37.7848H131.92V36.9984C131.736 37.2888 131.479 37.5256 131.175 37.6847C130.87 37.8437 130.529 37.9195 130.186 37.9042C129.878 37.9092 129.572 37.8496 129.288 37.729C129.005 37.6084 128.749 37.4297 128.539 37.2042C128.099 36.7444 127.853 36.1323 127.853 35.4955C127.853 34.8588 128.099 34.2467 128.539 33.7868C128.749 33.5601 129.004 33.3801 129.287 33.2588C129.571 33.1374 129.878 33.0775 130.186 33.0828C130.53 33.0683 130.871 33.1449 131.175 33.3047C131.48 33.4645 131.736 33.7018 131.92 33.9927V33.2022ZM130.273 37.1342C130.488 37.1399 130.702 37.1012 130.902 37.0205C131.102 36.9397 131.283 36.8186 131.434 36.6649C131.735 36.35 131.903 35.9311 131.903 35.4955C131.903 35.0599 131.735 34.6411 131.434 34.3262C131.125 34.0207 130.709 33.8493 130.275 33.8493C129.841 33.8493 129.424 34.0207 129.116 34.3262C128.817 34.642 128.65 35.0605 128.65 35.4955C128.65 35.9305 128.817 36.349 129.116 36.6649C129.268 36.8202 129.451 36.9421 129.653 37.023C129.855 37.1038 130.072 37.1417 130.289 37.1342H130.273Z" fill="white"/>
<path d="M136.457 33.0829C136.766 33.0776 137.072 33.1376 137.356 33.2589C137.64 33.3803 137.895 33.5602 138.104 33.787C138.544 34.2468 138.79 34.859 138.79 35.4957C138.79 36.1324 138.544 36.7445 138.104 37.2044C137.894 37.4298 137.638 37.6086 137.355 37.7291C137.071 37.8497 136.765 37.9094 136.457 37.9043C136.114 37.9196 135.773 37.8439 135.468 37.6848C135.164 37.5257 134.907 37.289 134.724 36.9985V37.7849H133.925V31.3701H134.724V33.9929C134.907 33.702 135.164 33.4646 135.468 33.3048C135.772 33.145 136.114 33.0685 136.457 33.0829ZM136.354 37.1344C136.569 37.1395 136.782 37.1005 136.981 37.0198C137.18 36.939 137.361 36.8183 137.511 36.665C137.81 36.3492 137.977 35.9307 137.977 35.4957C137.977 35.0607 137.81 34.6422 137.511 34.3264C137.203 34.0209 136.786 33.8495 136.352 33.8495C135.918 33.8495 135.501 34.0209 135.193 34.3264C134.892 34.6413 134.724 35.0601 134.724 35.4957C134.724 35.9313 134.892 36.3501 135.193 36.665C135.344 36.8188 135.525 36.9399 135.725 37.0206C135.924 37.1014 136.139 37.1401 136.354 37.1344Z" fill="white"/>
<path d="M140.13 32.3704C140.059 32.3709 139.99 32.3576 139.925 32.3312C139.859 32.3048 139.8 32.2658 139.75 32.2165C139.7 32.1672 139.66 32.1085 139.633 32.0438C139.605 31.979 139.591 31.9095 139.59 31.8392C139.59 31.7682 139.603 31.6978 139.63 31.6321C139.657 31.5663 139.697 31.5066 139.747 31.4563C139.796 31.4054 139.855 31.3649 139.921 31.3373C139.986 31.3096 140.057 31.2954 140.128 31.2954C140.199 31.2954 140.269 31.3096 140.334 31.3373C140.4 31.3649 140.459 31.4054 140.509 31.4563C140.559 31.5066 140.598 31.5663 140.625 31.6321C140.652 31.6978 140.666 31.7682 140.665 31.8392C140.666 31.909 140.652 31.9783 140.625 32.0427C140.598 32.1071 140.559 32.1653 140.509 32.2139C140.459 32.264 140.4 32.3036 140.335 32.3305C140.27 32.3574 140.2 32.3709 140.13 32.3704ZM139.718 37.7847V33.2021H140.517V37.7847H139.718Z" fill="white"/>
<path d="M141.744 37.7849V31.0942H142.542V37.7849H141.744Z" fill="white"/>
<path d="M144.157 32.3706C144.085 32.3715 144.014 32.3582 143.947 32.3313C143.881 32.3045 143.82 32.2646 143.77 32.2141C143.719 32.1655 143.68 32.1073 143.653 32.0429C143.626 31.9785 143.612 31.9092 143.613 31.8394C143.612 31.7684 143.626 31.698 143.653 31.6323C143.68 31.5665 143.719 31.5068 143.77 31.4565C143.82 31.4047 143.88 31.3638 143.946 31.3361C144.013 31.3085 144.084 31.2948 144.157 31.296C144.227 31.2953 144.296 31.3092 144.361 31.3369C144.425 31.3645 144.483 31.4053 144.531 31.4565C144.581 31.5068 144.621 31.5665 144.648 31.6323C144.675 31.698 144.688 31.7684 144.688 31.8394C144.687 31.98 144.63 32.1145 144.531 32.2138C144.432 32.3132 144.297 32.3695 144.157 32.3706ZM143.745 37.7849V33.2023H144.568V37.7849H143.745Z" fill="white"/>
<path d="M148.274 33.9556H147.039V36.426C147.023 36.5972 147.069 36.7685 147.17 36.9077C147.225 36.959 147.29 36.9986 147.361 37.024C147.432 37.0495 147.507 37.0604 147.582 37.0559C147.766 37.0559 147.992 37.0559 148.261 37.0559V37.7682C147.746 37.8866 147.207 37.8271 146.73 37.5994C146.555 37.4644 146.419 37.2864 146.334 37.0829C146.249 36.8794 146.218 36.6574 146.244 36.4383V33.9679H145.338V33.198H146.244V32.1522L147.043 31.9175V33.198H148.278L148.274 33.9556Z" fill="white"/>
<path d="M152.515 33.2021H153.367L151.494 38.073C151.336 38.5391 151.051 38.9515 150.67 39.2629C150.326 39.5331 149.891 39.6612 149.455 39.6211V38.8964C150.02 38.9376 150.431 38.6288 150.691 37.9618L150.773 37.7889L148.776 33.2227H149.628L151.185 36.8172L152.515 33.2021Z" fill="white"/>
<path d="M45.3398 12.0759V2.73779H49.4942L52.7181 8.54737L55.9584 2.73779H59.9605V12.0759H57.0783V5.6117L53.4015 12.0759H51.8328L48.156 5.6117V12.0759H45.3398Z" fill="white"/>
<path d="M61.3115 2.73779H64.5765L70.5343 8.61325V2.73779H73.4164V12.0759H70.5343L64.1977 5.89991V12.0759H61.3156L61.3115 2.73779Z" fill="white"/>
<path d="M81.7788 8.96321H77.7026V12.0759H74.7793V2.73779H81.7788C84.6856 2.73779 86.1377 3.75066 86.1349 5.77639V5.89991C86.1349 7.94211 84.6829 8.96321 81.7788 8.96321ZM77.7026 4.84587V6.85514H81.7294C82.6352 6.85514 83.084 6.52986 83.084 5.87521V5.83815C83.084 5.17938 82.6352 4.84587 81.7294 4.84587H77.7026Z" fill="white"/>
<path d="M34.9767 4.50438L31.4029 0.988161C30.7566 0.354263 29.8872 -0.000571929 28.9819 6.91981e-07H27.335L31.127 3.73443C31.4894 4.08905 31.7773 4.51245 31.9738 4.97979C32.1704 5.44713 32.2716 5.949 32.2717 6.45599V38.3036C32.273 38.6714 32.1617 39.0308 31.9527 39.3333C31.7436 39.6359 31.4468 39.8671 31.1023 39.9959H33.5275C33.8502 39.9997 34.1704 39.9395 34.4697 39.8188C34.769 39.698 35.0414 39.5191 35.2711 39.2925C35.5008 39.0658 35.6833 38.7959 35.8081 38.4982C35.9328 38.2006 35.9973 37.8811 35.9979 37.5584V6.94185C35.9975 6.48819 35.9071 6.0391 35.7318 5.62068C35.5565 5.20225 35.2998 4.82281 34.9767 4.50438Z" fill="white"/>
<path d="M29.1509 4.50438L25.5771 0.988161C24.9307 0.354263 24.0614 -0.000571929 23.1561 6.91981e-07H6.22559L24.593 18.281C24.8267 18.5133 25.0121 18.7894 25.1386 19.0936C25.2652 19.3978 25.3303 19.7241 25.3303 20.0535C25.3303 20.383 25.2652 20.7092 25.1386 21.0134C25.0121 21.3176 24.8267 21.5938 24.593 21.826L6.33677 39.9959H27.7057C28.0285 39.9997 28.3487 39.9395 28.648 39.8188C28.9473 39.698 29.2197 39.5191 29.4494 39.2925C29.6791 39.0658 29.8616 38.7959 29.9864 38.4982C30.1111 38.2006 30.1756 37.8811 30.1762 37.5584V6.94185C30.1753 6.4879 30.0842 6.03864 29.9082 5.6202C29.7322 5.20176 29.4748 4.82247 29.1509 4.50438Z" fill="white"/>
<path d="M0.0370672 37.8179L0 2.23577C0.00518474 1.80879 0.135542 1.39272 0.374893 1.0391C0.614245 0.685471 0.952081 0.409849 1.34656 0.246361C1.74103 0.0828727 2.17479 0.038702 2.59412 0.11934C3.01345 0.199977 3.39991 0.401879 3.70561 0.700012L21.5996 18.5116C21.8026 18.713 21.9638 18.9525 22.0738 19.2165C22.1837 19.4804 22.2404 19.7635 22.2404 20.0495C22.2404 20.3354 22.1837 20.6185 22.0738 20.8825C21.9638 21.1464 21.8026 21.386 21.5996 21.5873L3.74268 39.3577C3.43601 39.6542 3.04933 39.8545 2.63026 39.9339C2.21119 40.0133 1.77805 39.9684 1.38418 39.8048C0.990302 39.6411 0.652901 39.3658 0.413544 39.0127C0.174187 38.6597 0.0433185 38.2444 0.0370672 37.8179Z" fill="white"/>
</svg>
