<svg width="56" height="56" viewBox="0 0 56 56" fill="none" xmlns="http://www.w3.org/2000/svg">
<g filter="url(#filter0_d_2436_13127)">
<rect x="4" y="48" width="48" height="48" rx="24" transform="rotate(-90 4 48)" fill="white" shape-rendering="crispEdges"/>
<path d="M26.4531 15.1406C25.9844 15.6094 26.0312 16.3125 26.4531 16.7812L32.125 22.125L18.625 22.125C18.0156 22.125 17.5 22.6406 17.5 23.25L17.5 24.75C17.5 25.4062 18.0156 25.875 18.625 25.875L32.125 25.875L26.4531 31.2656C26.0312 31.7344 25.9844 32.4375 26.4531 32.9062L27.4844 33.9375C27.9062 34.3594 28.6562 34.3594 29.0781 33.9375L38.1719 24.7969C38.6406 24.375 38.6406 23.6719 38.1719 23.2031L29.0781 14.1094C28.6562 13.6875 27.9531 13.6875 27.4844 14.1094L26.4531 15.1406Z" fill="#13B31F"/>
</g>
<defs>
<filter id="filter0_d_2436_13127" x="0" y="0" width="56" height="56" filterUnits="userSpaceOnUse" color-interpolation-filters="sRGB">
<feFlood flood-opacity="0" result="BackgroundImageFix"/>
<feColorMatrix in="SourceAlpha" type="matrix" values="0 0 0 0 0 0 0 0 0 0 0 0 0 0 0 0 0 0 127 0" result="hardAlpha"/>
<feOffset dy="4"/>
<feGaussianBlur stdDeviation="2"/>
<feComposite in2="hardAlpha" operator="out"/>
<feColorMatrix type="matrix" values="0 0 0 0 0 0 0 0 0 0 0 0 0 0 0 0 0 0 0.25 0"/>
<feBlend mode="normal" in2="BackgroundImageFix" result="effect1_dropShadow_2436_13127"/>
<feBlend mode="normal" in="SourceGraphic" in2="effect1_dropShadow_2436_13127" result="shape"/>
</filter>
</defs>
</svg>
