<svg width="22" height="22" viewBox="0 0 22 22" fill="none" xmlns="http://www.w3.org/2000/svg">
<path d="M12.5469 2.14062C13.0156 2.60937 12.9688 3.3125 12.5469 3.78125L6.875 9.125L20.375 9.125C20.9844 9.125 21.5 9.64062 21.5 10.25L21.5 11.75C21.5 12.4062 20.9844 12.875 20.375 12.875L6.875 12.875L12.5469 18.2656C12.9688 18.7344 13.0156 19.4375 12.5469 19.9062L11.5156 20.9375C11.0938 21.3594 10.3438 21.3594 9.92188 20.9375L0.828126 11.7969C0.359376 11.375 0.359376 10.6719 0.828126 10.2031L9.92188 1.10937C10.3438 0.687499 11.0469 0.687499 11.5156 1.10937L12.5469 2.14062Z" fill="#13B31F"/>
</svg>
