<svg width="175" height="62" viewBox="0 0 175 62" fill="none" xmlns="http://www.w3.org/2000/svg">
<g clip-path="url(#clip0_2436_13050)">
<path d="M80.3756 16.518V32.7688C80.3756 38.3382 76.1412 41.4283 70.1902 41.4283C64.2394 41.4283 60.0049 38.3002 60.0049 32.7688V16.518H65.193V32.578C65.193 35.2102 67.3292 36.8123 70.1902 36.8123C73.0514 36.8123 75.2256 35.2102 75.2256 32.578V16.518H80.3756Z" fill="white"/>
<path d="M84.3818 37.9949L96.627 20.7905H84.3438V16.518H103.15V19.608L90.8668 36.8123H103.15V41.0849H84.3438V37.9949H84.3818Z" fill="white"/>
<path d="M112.382 41.0849H107.193V16.518H112.382V41.0849Z" fill="white"/>
<path d="M123.063 16.518L129.815 33.0357H130.12L136.872 16.518H143.281V41.0849H138.246V25.1011H138.055L131.684 40.9704H128.251L121.88 25.0248H121.69V41.0849H116.654V16.518H123.063Z" fill="white"/>
<path d="M147.858 16.518H164.414V20.7905H153.046V26.627H163.537V30.8996H153.046V36.7743H164.452V41.0467H147.858V16.518Z" fill="white"/>
<path d="M173.761 41.0849H168.572V16.518H173.761V41.0849Z" fill="white"/>
<path d="M60.7303 50.9269C60.2726 50.4691 60.0055 49.8206 60.0055 49.1721C59.9675 48.5236 60.2344 47.8751 60.7303 47.4173C61.1881 46.9595 61.8366 46.6925 62.5233 46.7306C62.981 46.7306 63.4007 46.8451 63.8202 47.0357V47.7988C63.4388 47.5317 62.981 47.4173 62.5233 47.4173C62.0654 47.4173 61.6077 47.5699 61.2643 47.9131C60.6158 48.6379 60.6158 49.7443 61.2643 50.4309C61.6077 50.7743 62.0654 50.9269 62.5233 50.9269C63.0191 50.9269 63.477 50.7743 63.8965 50.5072V51.2702C63.477 51.5372 62.981 51.6517 62.5233 51.6517C61.8366 51.6517 61.1881 51.3846 60.7303 50.9269Z" fill="white"/>
<path d="M64.7734 51.537V48.2183H65.4982V50.469L67.2912 48.2183H67.9778V51.537H67.253V49.2863L65.4602 51.537H64.7734Z" fill="white"/>
<path d="M69.3135 51.117C68.9701 50.7736 68.7793 50.3159 68.7793 49.8582C68.7793 49.4003 68.9701 48.9426 69.3135 48.5992C69.6567 48.2941 70.1146 48.1034 70.6103 48.1034C70.9537 48.1034 71.2971 48.1797 71.6022 48.3323V48.9808C71.3351 48.8282 71.03 48.7518 70.6866 48.7518C70.3815 48.7518 70.0763 48.8663 69.8475 49.0571C69.6186 49.2477 69.5041 49.5529 69.5041 49.8582C69.5041 50.1633 69.6186 50.4685 69.8475 50.6593C70.0763 50.8881 70.3815 50.9644 70.6866 50.9644C71.03 50.9644 71.3351 50.8881 71.6403 50.6973V51.3078C71.2971 51.4984 70.9537 51.5747 70.5723 51.5747C70.1146 51.6129 69.6567 51.4604 69.3135 51.117Z" fill="white"/>
<path d="M73.28 51.537V48.8668H72.1357V48.2183H75.1493V48.8668H74.0431V51.537H73.28Z" fill="white"/>
<path d="M75.9901 48.5997C76.2952 48.2563 76.7529 48.0657 77.2106 48.1038C77.5159 48.1038 77.8211 48.18 78.088 48.3709C78.5459 48.7142 78.8128 49.2865 78.8128 49.8967V50.0876H76.257C76.3333 50.6596 76.8292 51.003 77.5159 51.003C77.8974 51.003 78.2788 50.8885 78.584 50.6978V51.3081C78.2025 51.537 77.7829 51.6515 77.3632 51.6515C76.8674 51.6515 76.4095 51.4989 76.0663 51.1556C75.723 50.8122 75.5322 50.3545 75.5322 49.8967C75.4941 49.4008 75.6847 48.9431 75.9901 48.5997ZM78.088 49.5153C78.088 49.3245 78.0117 49.0957 77.8591 48.9811C77.7066 48.8286 77.4395 48.7142 77.2106 48.7523C76.7529 48.7142 76.3333 49.0574 76.2952 49.5534H78.088V49.5153Z" fill="white"/>
<path d="M79.6523 51.537V48.2183H80.3772L81.5216 49.5916L82.6659 48.2183H83.3907V51.537H82.6659V49.21L81.636 50.4308H81.3689L80.3772 49.21V51.537H79.6523Z" fill="white"/>
<path d="M87.7381 50.9265V51.4988C87.6238 51.575 87.4712 51.6131 87.3186 51.6131C87.0133 51.6513 86.7082 51.4605 86.6319 51.1554C86.3267 51.4988 85.869 51.6894 85.4111 51.6894C85.0679 51.6894 84.7628 51.6131 84.4957 51.3842C84.2668 51.1934 84.1142 50.8883 84.1523 50.5449C84.1523 50.2398 84.2668 49.9346 84.5337 49.7438C84.8008 49.5532 85.1442 49.4387 85.4876 49.4387C85.869 49.4387 86.2122 49.515 86.5556 49.7058V49.515C86.5556 49.019 86.2122 48.7902 85.5639 48.7902C85.1823 48.7902 84.8391 48.9047 84.4957 49.0953V48.447C84.8771 48.2562 85.2968 48.1416 85.7164 48.1416C86.6319 48.1416 87.2423 48.5995 87.2423 49.4006V50.6594C87.2423 50.8883 87.3567 51.0028 87.5092 51.0028C87.5855 50.9646 87.6618 50.9646 87.7381 50.9265ZM86.5175 50.2017C86.2504 50.0491 85.9453 49.9729 85.6401 49.9729C85.1442 49.9729 84.8391 50.1635 84.8391 50.5069C84.8391 50.8502 85.1442 51.0409 85.5639 51.0409C85.9071 51.0409 86.2504 50.8883 86.5175 50.6212V50.2017Z" fill="white"/>
<path d="M93.3077 48.6379C93.9179 49.3627 93.9179 50.3927 93.3077 51.1175C93.0023 51.4607 92.5829 51.6134 92.1632 51.6134C91.7055 51.6515 91.2476 51.4226 90.9807 51.0793V52.9103H90.2559V48.2183H90.9807V48.676C91.2476 48.2946 91.7055 48.1037 92.1632 48.142C92.6209 48.1037 93.0406 48.2946 93.3077 48.6379ZM90.9807 49.3627V50.3927C91.1713 50.7361 91.5529 50.9649 91.9724 51.003C92.2777 51.003 92.5446 50.8886 92.7354 50.6978C92.9261 50.469 93.0406 50.2019 93.0406 49.8967C93.0406 49.5916 92.9261 49.3245 92.7354 49.0956C92.5446 48.8668 92.2777 48.7523 91.9724 48.7905C91.5529 48.7523 91.1713 48.9811 90.9807 49.3627Z" fill="white"/>
<path d="M94.8346 48.5997C95.1397 48.2563 95.5974 48.0657 96.0553 48.1038C96.3605 48.1038 96.6656 48.18 96.9327 48.3709C97.3904 48.7142 97.6575 49.2865 97.6575 49.8967V50.0876H95.1015C95.1779 50.6596 95.6737 51.003 96.3605 51.003C96.7419 51.003 97.1233 50.8885 97.4285 50.6978V51.3081C97.047 51.537 96.6274 51.6515 96.2079 51.6515C95.7119 51.6515 95.2542 51.4989 94.9108 51.1556C94.5675 50.8122 94.3768 50.3545 94.3768 49.8967C94.3386 49.4008 94.4912 48.9431 94.8346 48.5997ZM96.8945 49.5153C96.8945 49.3245 96.8182 49.0957 96.6656 48.9811C96.513 48.8286 96.2842 48.7142 96.0171 48.7523C95.5594 48.7142 95.1397 49.0574 95.1015 49.5534H96.8945V49.5153Z" fill="white"/>
<path d="M98.457 51.537V48.2183H101.051V48.8668H99.2201V51.537H98.457Z" fill="white"/>
<path d="M101.777 51.537V48.2183H102.502V50.469L104.295 48.2183H104.982V51.537H104.257V49.2863L102.464 51.537H101.777Z" fill="white"/>
<path d="M106.317 51.117C105.974 50.7736 105.783 50.3159 105.783 49.8582C105.783 49.4003 105.974 48.9426 106.317 48.5992C106.661 48.2941 107.118 48.1034 107.614 48.1034C107.958 48.1034 108.301 48.1797 108.606 48.3323V48.9808C108.339 48.8282 108.034 48.7518 107.691 48.7518C107.385 48.7518 107.08 48.8663 106.851 49.0571C106.622 49.2477 106.508 49.5529 106.508 49.8582C106.508 50.1633 106.622 50.4685 106.851 50.6593C107.08 50.8881 107.385 50.9644 107.691 50.9644C108.034 50.9644 108.339 50.8881 108.644 50.6973V51.3078C108.301 51.4984 107.958 51.5747 107.576 51.5747C107.118 51.6129 106.661 51.4604 106.317 51.117Z" fill="white"/>
<path d="M110.322 51.537V48.8668H109.178V48.2183H112.153V48.8668H111.047V51.537H110.322Z" fill="white"/>
<path d="M115.93 48.6379C116.54 49.3627 116.54 50.3927 115.93 51.1175C115.625 51.4607 115.205 51.6515 114.785 51.6134C114.328 51.6515 113.87 51.4226 113.603 51.0793V52.9103H112.878V48.2183H113.603V48.676C113.87 48.2946 114.328 48.1037 114.785 48.142C115.205 48.1037 115.625 48.2946 115.93 48.6379ZM113.565 49.3627V50.3927C113.755 50.7361 114.137 50.9649 114.556 51.003C114.862 51.003 115.129 50.8886 115.319 50.6978C115.51 50.469 115.625 50.2019 115.625 49.8967C115.625 49.5916 115.51 49.3245 115.319 49.0956C115.129 48.8668 114.862 48.7523 114.556 48.7905C114.137 48.7523 113.755 48.9811 113.565 49.3627Z" fill="white"/>
<path d="M120.508 50.9265V51.4988C120.393 51.575 120.241 51.6131 120.088 51.6131C119.783 51.6513 119.478 51.4605 119.401 51.1554C119.096 51.4988 118.639 51.6894 118.181 51.6894C117.837 51.6894 117.532 51.6131 117.265 51.3842C117.036 51.1934 116.884 50.8883 116.922 50.5449C116.922 50.2398 117.036 49.9346 117.303 49.7438C117.57 49.5532 117.914 49.4387 118.257 49.4387C118.639 49.4387 118.982 49.515 119.325 49.7058V49.515C119.325 49.019 118.982 48.7902 118.333 48.7902C117.952 48.7902 117.609 48.9047 117.265 49.0953V48.447C117.647 48.2562 118.066 48.1416 118.486 48.1416C119.401 48.1416 120.012 48.5995 120.012 49.4006V50.6594C120.012 50.8883 120.126 51.0028 120.279 51.0028C120.355 50.9646 120.431 50.9646 120.508 50.9265ZM119.287 50.2017C119.02 50.0491 118.715 49.9729 118.41 49.9729C117.914 49.9729 117.647 50.1635 117.647 50.5069C117.647 50.8502 117.952 51.0409 118.371 51.0409C118.715 51.0409 119.058 50.8883 119.325 50.6212L119.287 50.2017Z" fill="white"/>
<path d="M124.207 52.4526V51.537H121.231V48.2183H121.956V50.8885H123.596V48.2183H124.36V50.8885H124.932V52.4526H124.207Z" fill="white"/>
<path d="M125.657 51.537V48.2183H126.382V50.469L128.175 48.2183H128.862V51.537H128.137V49.2863L126.344 51.537H125.657Z" fill="white"/>
<path d="M129.93 51.537V48.2183H130.654V50.469L132.447 48.2183H133.134V51.537H132.409V49.2863L130.616 51.537H129.93Z" fill="white"/>
<path d="M136.071 51.537V46.7685H136.834V51.537H136.071Z" fill="white"/>
<path d="M138.017 51.537V46.7685H138.779L140.305 48.9047L141.831 46.7685H142.594V51.537H141.831V47.913L140.496 49.7058H140.076L138.741 47.913V51.537H138.017Z" fill="white"/>
<path d="M143.777 51.537V46.7685H147.173V47.4552H144.54V48.6378H146.677V49.3243H144.54V50.8502H147.249V51.537H143.777Z" fill="white"/>
<path d="M148.164 51.537V46.7685H148.927V51.537H148.164Z" fill="white"/>
<path d="M150.225 50.0114V49.3629H152.208V50.0114H150.225Z" fill="white"/>
<path d="M153.429 51.537V48.2183H154.154V49.4771L155.489 48.2183H156.404L154.84 49.7059L156.671 51.537H155.641L154.154 50.0493V51.537H153.429Z" fill="white"/>
<path d="M157.32 51.1177C156.633 50.4309 156.633 49.3247 157.32 48.6381C158.083 47.9514 159.189 47.9514 159.952 48.6381C160.295 48.9433 160.486 49.401 160.486 49.8969C160.486 50.3546 160.295 50.8124 159.952 51.1557C159.227 51.8042 158.083 51.8042 157.32 51.1177ZM159.418 50.6598C159.609 50.4309 159.723 50.164 159.723 49.8587C159.723 49.5535 159.609 49.2866 159.418 49.0576C158.998 48.6381 158.311 48.6381 157.854 49.0576C157.625 49.2866 157.51 49.5535 157.51 49.8587C157.51 50.164 157.625 50.4309 157.816 50.6598C158.311 51.0794 158.998 51.0794 159.418 50.6598Z" fill="white"/>
<path d="M160.791 52.4524V50.8883H161.211C161.401 50.5831 161.554 50.2398 161.592 49.8966C161.668 49.3243 161.707 48.7521 161.707 48.1799H164.377V50.8502H164.949V52.4142H164.262V51.4988H161.478V52.4142L160.791 52.4524ZM163.652 50.8883V48.8284H162.393C162.431 49.515 162.279 50.2398 162.012 50.8883H163.652Z" fill="white"/>
<path d="M165.98 51.1177C165.293 50.4309 165.293 49.3247 165.98 48.6381C166.743 47.9514 167.849 47.9514 168.612 48.6381C168.955 48.9433 169.146 49.401 169.146 49.8969C169.146 50.3546 168.993 50.8124 168.65 51.1557C167.849 51.8042 166.743 51.8042 165.98 51.1177ZM168.078 50.6598C168.269 50.4309 168.383 50.164 168.383 49.8587C168.383 49.5535 168.269 49.2866 168.078 49.0576C167.658 48.6381 166.934 48.6381 166.514 49.0576C166.323 49.2484 166.209 49.5535 166.209 49.8587C166.209 50.164 166.323 50.4309 166.514 50.6598C166.934 51.0794 167.62 51.0794 168.078 50.6598Z" fill="white"/>
<path d="M169.908 51.537V48.2183H171.74C172.426 48.2183 172.769 48.5617 172.769 49.0574C172.769 49.3627 172.616 49.6297 172.35 49.7822C172.73 49.8585 173.036 50.2401 172.999 50.6216C172.999 51.1938 172.579 51.537 171.816 51.537H169.908ZM170.671 49.5534H171.587C171.891 49.5534 172.083 49.4008 172.083 49.1719C172.083 48.9431 171.93 48.7905 171.587 48.7905H170.671V49.5534ZM170.671 50.9649H171.74C172.083 50.9649 172.311 50.8122 172.311 50.5453C172.311 50.2782 172.12 50.1256 171.74 50.1256H170.671V50.9649Z" fill="white"/>
<path d="M60.1201 59.7764V56.4577H60.8449L61.9894 57.831L63.1337 56.4577H63.8585V59.7764H63.1337V57.4494L62.1037 58.6702H61.7986L60.8069 57.4494V59.7764H60.1201Z" fill="white"/>
<path d="M65.1556 59.3569C64.469 58.6702 64.469 57.564 65.1556 56.8774C65.4989 56.534 65.9949 56.3432 66.4907 56.3814C66.9866 56.3814 67.4443 56.534 67.7877 56.8774C68.1311 57.1825 68.3219 57.6402 68.3219 58.1362C68.3219 58.5939 68.1311 59.0516 67.7877 59.395C67.4443 59.7384 66.9485 59.929 66.4907 59.8909C65.9949 59.8909 65.4989 59.7001 65.1556 59.3569ZM67.2537 58.8991C67.7114 58.4796 67.7114 57.7548 67.2917 57.3351C67.1011 57.1062 66.796 56.9917 66.4907 56.9917C65.8804 56.9917 65.3844 57.4877 65.3844 58.098C65.3844 58.7084 65.8804 59.2042 66.4907 59.2042C66.796 59.2042 67.0629 59.0899 67.2537 58.8991Z" fill="white"/>
<path d="M69.3902 59.281C69.0468 58.8233 68.8943 58.251 68.9325 57.6788C68.8943 57.0685 69.0851 56.4581 69.4665 55.9623C69.6573 55.7715 69.8862 55.5807 70.115 55.4663C70.3821 55.3138 70.6873 55.2375 70.9924 55.1612C71.2976 55.0849 71.6792 55.0084 72.0986 54.9322V55.6189C71.6409 55.6952 71.1832 55.8095 70.7253 55.924C70.3058 56.0386 69.9242 56.3437 69.7336 56.7251C69.6573 56.9159 69.6191 57.1066 69.6191 57.2974C69.9242 56.8777 70.4584 56.6106 70.9924 56.6489C71.7935 56.6106 72.4802 57.2211 72.5183 58.0222C72.5183 58.0602 72.5183 58.0985 72.5183 58.1748C72.5183 58.6325 72.3657 59.0904 72.0224 59.3955C71.7172 59.7007 71.2595 59.8915 70.8018 59.8532C70.2295 59.8915 69.7336 59.6624 69.3902 59.281ZM71.4501 58.9376C71.6409 58.747 71.7554 58.4799 71.7172 58.213C71.7554 57.717 71.3738 57.2974 70.8398 57.2591C70.8018 57.2591 70.7635 57.2591 70.7635 57.2591C70.3058 57.2591 69.8862 57.5262 69.6573 57.9459C69.6954 58.747 70.077 59.2429 70.7635 59.2429C70.9924 59.2429 71.2595 59.1284 71.4501 58.9376Z" fill="white"/>
<path d="M73.2803 59.7764V56.4577H74.0051V58.7084L75.7981 56.4577H76.4846V59.7764H75.7598V57.5257L73.967 59.7764H73.2803Z" fill="white"/>
<path d="M78.6978 57.068V57.564C78.6978 57.9836 78.6597 58.4031 78.5452 58.7847C78.4689 59.3569 77.973 59.7764 77.4007 59.7764C77.3244 59.7764 77.2482 59.7764 77.1719 59.7384V59.1279C77.2101 59.1279 77.2864 59.1279 77.3245 59.1661C77.8204 59.1661 77.973 58.7084 78.0112 57.564L78.0493 56.4577H80.7196V59.7764H79.9948V57.1062L78.6978 57.068Z" fill="white"/>
<path d="M81.749 59.7764V56.4577H82.4738V57.4494H83.4277C84.2288 57.4494 84.7628 57.9073 84.7628 58.5939C84.7628 58.899 84.6482 59.2042 84.4194 59.4332C84.1523 59.6621 83.8091 59.7764 83.4657 59.7764H81.749ZM82.4738 59.1661H83.3512C83.7709 59.1661 84.038 58.9373 84.038 58.6321C84.038 58.3268 83.7709 58.098 83.3512 58.098H82.4738V59.1661Z" fill="white"/>
<path d="M85.5635 59.7764V56.4577H86.2883V57.7548H87.9667V56.4577H88.6916V59.7764H87.9667V58.4031H86.2883V59.7764H85.5635Z" fill="white"/>
<path d="M89.7979 59.7764V56.4577H90.5227V57.4494H91.3237C92.1248 57.4494 92.659 57.9073 92.659 58.5939C92.659 58.899 92.5445 59.2042 92.3156 59.4332C92.0486 59.6621 91.7053 59.7764 91.362 59.7764H89.7979ZM90.5227 59.1661H91.2475C91.6671 59.1661 91.9342 58.9373 91.9342 58.6321C91.9342 58.3268 91.6671 58.098 91.2475 58.098H90.5227V59.1661ZM93.1548 59.7764V56.4577H93.8796V59.7764H93.1548Z" fill="white"/>
<path d="M95.5583 56.4582L96.3594 57.4882L97.1605 56.4582H97.9997L96.7789 58.0224L98.1142 59.7771H97.2749L96.3594 58.5564L95.4438 59.7771H94.6045L95.9398 58.0224L94.719 56.4202H95.5583V56.4582Z" fill="white"/>
<path d="M100.327 61.0735V60.4249C100.48 60.5012 100.632 60.5395 100.823 60.5395C101.205 60.5395 101.434 60.2724 101.7 59.6621L100.251 56.4577H101.052L102.044 58.8228L102.997 56.4577H103.799L102.235 60.1198C101.929 60.8064 101.51 61.1498 100.976 61.1498C100.747 61.188 100.556 61.1498 100.327 61.0735Z" fill="white"/>
<path d="M104.676 59.3574C104.332 59.0141 104.142 58.5564 104.142 58.0986C104.142 57.6407 104.332 57.183 104.676 56.8397C105.019 56.4964 105.477 56.3439 105.973 56.3439C106.316 56.3439 106.659 56.4202 106.965 56.5727V57.2212C106.698 57.0685 106.392 56.9922 106.049 56.9922C105.744 56.9922 105.439 57.1067 105.21 57.2975C104.981 57.4882 104.866 57.7933 104.866 58.0986C104.866 58.4038 104.981 58.7089 105.21 58.8997C105.439 59.0904 105.744 59.2049 106.049 59.2049C106.392 59.2049 106.698 59.1286 107.003 58.9378V59.5482C106.659 59.7389 106.316 59.8152 105.935 59.8152C105.477 59.8914 105.019 59.7008 104.676 59.3574Z" fill="white"/>
<path d="M108.643 59.7764V57.1062H107.498V56.4577H110.474V57.1062H109.367V59.7764H108.643Z" fill="white"/>
<path d="M114.25 56.8774C114.861 57.6022 114.861 58.6702 114.25 59.3569C113.945 59.7001 113.525 59.8527 113.106 59.8527C112.648 59.8909 112.19 59.6621 111.923 59.3187V61.1498H111.198V56.4577H111.923V56.9154C112.19 56.534 112.648 56.3432 113.106 56.3814C113.563 56.3432 113.983 56.534 114.25 56.8774ZM111.923 57.602V58.6321C112.114 58.9753 112.495 59.2044 112.915 59.2424C113.22 59.2424 113.487 59.1279 113.678 58.9373C113.869 58.7084 113.983 58.4413 113.983 58.1362C113.983 57.831 113.869 57.564 113.678 57.3351C113.487 57.1062 113.22 56.9917 112.915 56.9917C112.495 57.03 112.114 57.2206 111.923 57.602Z" fill="white"/>
<path d="M115.815 59.3571C115.128 58.6704 115.128 57.5641 115.815 56.8774C116.54 56.1908 117.684 56.1908 118.447 56.8774C118.79 57.1827 118.981 57.6404 118.981 58.1364C118.981 58.5941 118.79 59.0518 118.447 59.3952C117.684 60.0437 116.54 60.0437 115.815 59.3571ZM117.913 58.8992C118.333 58.4415 118.333 57.7549 117.913 57.3353C117.722 57.1445 117.417 57.0301 117.15 57.0301C116.578 57.0301 116.082 57.4878 116.044 58.0601C116.044 58.0981 116.044 58.0981 116.044 58.1364C116.044 58.7466 116.54 59.2426 117.15 59.2426C117.417 59.2426 117.684 59.09 117.913 58.8992Z" fill="white"/>
<path d="M119.743 59.7768V56.4579H120.468V58.7086L122.261 56.4579H122.948V59.7768H122.223V57.5261L120.43 59.7768H119.743ZM120.201 54.8557H120.811C120.811 55.1608 121.002 55.3897 121.307 55.4279H121.345C121.65 55.4279 121.88 55.1991 121.918 54.8938V54.8557H122.528C122.528 55.5042 121.994 56.0382 121.345 56.0382C120.697 56.0382 120.201 55.5042 120.201 54.8557Z" fill="white"/>
<path d="M124.322 59.3574C123.979 59.0141 123.788 58.5564 123.788 58.0986C123.788 57.6407 123.979 57.183 124.322 56.8397C124.665 56.4964 125.123 56.3439 125.619 56.3439C125.962 56.3439 126.306 56.4202 126.611 56.5727V57.2212C126.344 57.0685 126.039 56.9922 125.696 56.9922C125.39 56.9922 125.085 57.1067 124.856 57.2975C124.627 57.4882 124.513 57.7933 124.513 58.0986C124.513 58.4038 124.627 58.7089 124.856 58.8997C125.085 59.0904 125.39 59.2049 125.696 59.2049C126.039 59.2049 126.344 59.1286 126.649 58.9378V59.5482C126.344 59.7389 125.962 59.8152 125.581 59.8152C125.123 59.8914 124.665 59.7008 124.322 59.3574Z" fill="white"/>
<path d="M128.29 59.7764V57.1062H127.146V56.4577H130.121V57.1062H129.015V59.7764H128.29Z" fill="white"/>
<path d="M130.807 59.7764V56.4577H132.638C133.324 56.4577 133.706 56.8009 133.706 57.2969C133.706 57.602 133.553 57.8691 133.286 58.0217C133.668 58.098 133.973 58.4794 133.935 58.861C133.935 59.4332 133.515 59.7764 132.752 59.7764H130.807ZM131.531 57.7548H132.447C132.752 57.7548 132.943 57.602 132.943 57.3732C132.943 57.1443 132.752 56.9917 132.447 56.9917H131.531V57.7548ZM131.531 59.1661H132.6C132.943 59.1661 133.134 59.0136 133.134 58.7465C133.134 58.4794 132.943 58.3268 132.6 58.3268H131.531V59.1661Z" fill="white"/>
<path d="M60.006 0L22.507 37.4988L12.1311 27.1609L8.96484 30.2889L22.507 43.9838L60.006 6.48504V0Z" fill="url(#paint0_linear_2436_13050)"/>
<path d="M39.0629 56.725H5.98913C5.14988 56.725 4.46323 56.0384 4.46323 55.1991V20.485C4.46323 20.0655 4.61582 19.6839 4.921 19.417L19.3788 4.921C19.6839 4.65396 20.0655 4.46323 20.447 4.46323H39.0629C39.902 4.46323 40.5888 5.14988 40.5888 5.98913V12.4742L45.052 8.01092V3.05178C45.052 1.3733 43.6786 0 42.0002 0H19.2644C18.4634 0 17.6623 0.305178 17.09 0.877387L0.877387 17.09C0.305178 17.6623 0 18.4251 0 19.2262V58.0983C0 59.7768 1.3733 61.1501 3.05178 61.1501H42.0002C43.6786 61.1501 45.052 59.7768 45.052 58.0983V27.9619L40.5888 32.4251V55.161C40.5888 56.0384 39.902 56.725 39.0629 56.725Z" fill="url(#paint1_linear_2436_13050)"/>
</g>
<defs>
<linearGradient id="paint0_linear_2436_13050" x1="57.1942" y1="-1.9112" x2="16.049" y2="36.7738" gradientUnits="userSpaceOnUse">
<stop offset="0.00297095" stop-color="white"/>
<stop offset="1" stop-color="white"/>
</linearGradient>
<linearGradient id="paint1_linear_2436_13050" x1="60.3624" y1="0.71351" x2="2.1123" y2="59.1699" gradientUnits="userSpaceOnUse">
<stop offset="0.00297095" stop-color="white"/>
<stop offset="1" stop-color="white"/>
</linearGradient>
<clipPath id="clip0_2436_13050">
<rect width="175" height="61.165" fill="white"/>
</clipPath>
</defs>
</svg>
